<svg xmlns="http://www.w3.org/2000/svg" width="779.1901245117188" height="623.7562255859375" viewBox="-470.0323181152344 -395.1371154785156 779.1901245117188 623.7562255859375"><title>Neo4j Graph Visualization</title><desc>Created using Neo4j (http://www.neo4j.com/)</desc><g class="layer relationships"><g class="relationship" transform="translate(122.13814189532334 -212.97478484018563) rotate(512.5237055485243)"><path class="outline" fill="#A5ABB6" stroke="none" d="M 25 0.5 L 25.892295518635287 0.5 L 25.892295518635287 -0.5 L 25 -0.5 Z M 91.46260801863528 0.5 L 92.35490353727057 0.5 L 92.35490353727057 3.5 L 99.35490353727057 0 L 92.35490353727057 -3.5 L 92.35490353727057 -0.5 L 91.46260801863528 -0.5 Z"/><text text-anchor="middle" pointer-events="none" font-size="8px" fill="#000000" x="58.67745176863529" y="3" transform="rotate(180 58.67745176863529 0)" font-family="sans-serif">JE_PRISTUPNA</text></g><g class="relationship" transform="translate(122.13814189532334 -212.97478484018563) rotate(511.75025508911233)"><path class="outline" fill="#A5ABB6" stroke="none" d="M 25 0.5 L 74.1371992165415 0.5 L 74.1371992165415 -0.5 L 25 -0.5 Z M 139.7075117165415 0.5 L 188.844710933083 0.5 L 188.844710933083 3.5 L 195.844710933083 0 L 188.844710933083 -3.5 L 188.844710933083 -0.5 L 139.7075117165415 -0.5 Z"/><text text-anchor="middle" pointer-events="none" font-size="8px" fill="#000000" x="106.9223554665415" y="3" transform="rotate(180 106.9223554665415 0)" font-family="sans-serif">JE_PRISTUPNA</text></g><g class="relationship" transform="translate(122.13814189532334 -212.97478484018563) rotate(538.1083205086393)"><path class="outline" fill="#A5ABB6" stroke="none" d="M 25 0.5 L 58.966192519361556 0.5 L 58.966192519361556 -0.5 L 25 -0.5 Z M 128.98572376936156 0.5 L 162.9519162887231 0.5 L 162.9519162887231 3.5 L 169.9519162887231 0 L 162.9519162887231 -3.5 L 162.9519162887231 -0.5 L 128.98572376936156 -0.5 Z"/><text text-anchor="middle" pointer-events="none" font-size="8px" fill="#000000" x="93.97595814436156" y="3" transform="rotate(180 93.97595814436156 0)" font-family="sans-serif">OTEVRENA_DLE</text></g><g class="relationship" transform="translate(122.13814189532334 -212.97478484018563) rotate(301.8819293412025)"><path class="outline" fill="#A5ABB6" stroke="none" d="M 25 0.5 L 41.5795830832936 0.5 L 41.5795830832936 -0.5 L 25 -0.5 Z M 111.5991143332936 0.5 L 128.1786974165872 0.5 L 128.1786974165872 3.5 L 135.1786974165872 0 L 128.1786974165872 -3.5 L 128.1786974165872 -0.5 L 111.5991143332936 -0.5 Z"/><text text-anchor="middle" pointer-events="none" font-size="8px" fill="#000000" x="76.5893487082936" y="3" font-family="sans-serif">OTEVRENA_DLE</text></g><g class="relationship" transform="translate(122.13814189532334 -212.97478484018563) rotate(463.07876310400286)"><path class="outline" fill="#A5ABB6" stroke="none" d="M 25 0.5 L 81.11398391970414 0.5 L 81.11398391970414 -0.5 L 25 -0.5 Z M 151.13351516970414 0.5 L 207.24749908940828 0.5 L 207.24749908940828 3.5 L 214.24749908940828 0 L 207.24749908940828 -3.5 L 207.24749908940828 -0.5 L 151.13351516970414 -0.5 Z"/><text text-anchor="middle" pointer-events="none" font-size="8px" fill="#000000" x="116.12374954470414" y="3" transform="rotate(180 116.12374954470414 0)" font-family="sans-serif">OTEVRENA_DLE</text></g><g class="relationship" transform="translate(122.13814189532334 -212.97478484018563) rotate(337.85605569123845)"><path class="outline" fill="#A5ABB6" stroke="none" d="M 25 0.5 L 42.321758022310505 0.5 L 42.321758022310505 -0.5 L 25 -0.5 Z M 112.3412892723105 0.5 L 129.663047294621 0.5 L 129.663047294621 3.5 L 136.663047294621 0 L 129.663047294621 -3.5 L 129.663047294621 -0.5 L 112.3412892723105 -0.5 Z"/><text text-anchor="middle" pointer-events="none" font-size="8px" fill="#000000" x="77.3315236473105" y="3" font-family="sans-serif">OTEVRENA_DLE</text></g><g class="relationship" transform="translate(122.13814189532334 -212.97478484018563) rotate(463.91881880790356)"><path class="outline" fill="#A5ABB6" stroke="none" d="M 25 0.5 L 26.538488131923245 0.5 L 26.538488131923245 -0.5 L 25 -0.5 Z M 79.21036313192324 0.5 L 80.74885126384649 0.5 L 80.74885126384649 3.5 L 87.74885126384649 0 L 80.74885126384649 -3.5 L 80.74885126384649 -0.5 L 79.21036313192324 -0.5 Z"/><text text-anchor="middle" pointer-events="none" font-size="8px" fill="#000000" x="52.874425631923245" y="3" transform="rotate(180 52.874425631923245 0)" font-family="sans-serif">OTEVREN…</text></g><g class="relationship" transform="translate(122.13814189532334 -212.97478484018563) rotate(485.7336099514079)"><path class="outline" fill="#A5ABB6" stroke="none" d="M 25 0.5 L 57.420758097481 0.5 L 57.420758097481 -0.5 L 25 -0.5 Z M 127.440289347481 0.5 L 159.861047444962 0.5 L 159.861047444962 3.5 L 166.861047444962 0 L 159.861047444962 -3.5 L 159.861047444962 -0.5 L 127.440289347481 -0.5 Z"/><text text-anchor="middle" pointer-events="none" font-size="8px" fill="#000000" x="92.430523722481" y="3" transform="rotate(180 92.430523722481 0)" font-family="sans-serif">OTEVRENA_DLE</text></g><g class="relationship" transform="translate(122.13814189532334 -212.97478484018563) rotate(440.5005867142755)"><path class="outline" fill="#A5ABB6" stroke="none" d="M 25 0.5 L 56.19515506735908 0.5 L 56.19515506735908 -0.5 L 25 -0.5 Z M 126.21468631735908 0.5 L 157.40984138471816 0.5 L 157.40984138471816 3.5 L 164.40984138471816 0 L 157.40984138471816 -3.5 L 157.40984138471816 -0.5 L 126.21468631735908 -0.5 Z"/><text text-anchor="middle" pointer-events="none" font-size="8px" fill="#000000" x="91.20492069235908" y="3" font-family="sans-serif">OTEVRENA_DLE</text></g><g class="relationship" transform="translate(122.13814189532334 -212.97478484018563) rotate(373.47007108709795)"><path class="outline" fill="#A5ABB6" stroke="none" d="M 25 0.5 L 68.74476520334454 0.5 L 68.74476520334454 -0.5 L 25 -0.5 Z M 86.74476520334454 0.5 L 130.48953040668908 0.5 L 130.48953040668908 3.5 L 137.48953040668908 0 L 130.48953040668908 -3.5 L 130.48953040668908 -0.5 L 86.74476520334454 -0.5 Z"/><text text-anchor="middle" pointer-events="none" font-size="8px" fill="#000000" x="77.74476520334454" y="3" font-family="sans-serif">MA</text></g><g class="relationship" transform="translate(122.13814189532334 -212.97478484018563) rotate(265.09010493287076)"><path class="outline" fill="#A5ABB6" stroke="none" d="M 25 0.5 L 38.943291341426814 0.5 L 38.943291341426814 -0.5 L 25 -0.5 Z M 107.78313509142681 0.5 L 121.72642643285363 0.5 L 121.72642643285363 3.5 L 128.72642643285363 0 L 121.72642643285363 -3.5 L 121.72642643285363 -0.5 L 107.78313509142681 -0.5 Z"/><text text-anchor="middle" pointer-events="none" font-size="8px" fill="#000000" x="73.36321321642681" y="3" transform="rotate(180 73.36321321642681 0)" font-family="sans-serif">JE_POKRYVANA</text></g><g class="relationship" transform="translate(-124.34375539000006 0.8904565327955407) rotate(311.02484173753396)"><path class="outline" fill="#A5ABB6" stroke="none" d="M 25 0.5 L 67.4297037111398 0.5 L 67.4297037111398 -0.5 L 25 -0.5 Z M 133.00001621113978 0.5 L 175.4297199222796 0.5 L 175.4297199222796 3.5 L 182.4297199222796 0 L 175.4297199222796 -3.5 L 175.4297199222796 -0.5 L 133.00001621113978 -0.5 Z"/><text text-anchor="middle" pointer-events="none" font-size="8px" fill="#000000" x="100.2148599611398" y="3" font-family="sans-serif">JE_PRISTUPNA</text></g><g class="relationship" transform="translate(-124.34375539000006 0.8904565327955407) rotate(450.1352321790236)"><path class="outline" fill="#A5ABB6" stroke="none" d="M 25 0.5 L 25.447991978762765 0.5 L 25.447991978762765 -0.5 L 25 -0.5 Z M 76.79174197876276 0.5 L 77.23973395752553 0.5 L 77.23973395752553 3.5 L 84.23973395752553 0 L 77.23973395752553 -3.5 L 77.23973395752553 -0.5 L 76.79174197876276 -0.5 Z"/><text text-anchor="middle" pointer-events="none" font-size="8px" fill="#000000" x="51.119866978762765" y="3" transform="rotate(180 51.119866978762765 0)" font-family="sans-serif">JE_PRIST…</text></g><g class="relationship" transform="translate(-124.34375539000006 0.8904565327955407) rotate(283.9787128854888)"><path class="outline" fill="#A5ABB6" stroke="none" d="M 25 0.5 L 68.37036737607814 0.5 L 68.37036737607814 -0.5 L 25 -0.5 Z M 138.38989862607815 0.5 L 181.76026600215627 0.5 L 181.76026600215627 3.5 L 188.76026600215627 0 L 181.76026600215627 -3.5 L 181.76026600215627 -0.5 L 138.38989862607815 -0.5 Z"/><text text-anchor="middle" pointer-events="none" font-size="8px" fill="#000000" x="103.38013300107814" y="3" font-family="sans-serif">OTEVRENA_DLE</text></g><g class="relationship" transform="translate(-124.34375539000006 0.8904565327955407) rotate(488.8610488042343)"><path class="outline" fill="#A5ABB6" stroke="none" d="M 25 0.5 L 39.48484364545989 0.5 L 39.48484364545989 -0.5 L 25 -0.5 Z M 109.50437489545989 0.5 L 123.98921854091978 0.5 L 123.98921854091978 3.5 L 130.98921854091978 0 L 123.98921854091978 -3.5 L 123.98921854091978 -0.5 L 109.50437489545989 -0.5 Z"/><text text-anchor="middle" pointer-events="none" font-size="8px" fill="#000000" x="74.49460927045989" y="3" transform="rotate(180 74.49460927045989 0)" font-family="sans-serif">OTEVRENA_DLE</text></g><g class="relationship" transform="translate(-124.34375539000006 0.8904565327955407) rotate(365.6934582926374)"><path class="outline" fill="#A5ABB6" stroke="none" d="M 25 0.5 L 58.138264843045576 0.5 L 58.138264843045576 -0.5 L 25 -0.5 Z M 128.1577960930456 0.5 L 161.29606093609115 0.5 L 161.29606093609115 3.5 L 168.29606093609115 0 L 161.29606093609115 -3.5 L 161.29606093609115 -0.5 L 128.1577960930456 -0.5 Z"/><text text-anchor="middle" pointer-events="none" font-size="8px" fill="#000000" x="93.14803046804558" y="3" font-family="sans-serif">OTEVRENA_DLE</text></g><g class="relationship" transform="translate(-124.34375539000006 0.8904565327955407) rotate(460.5858274012419)"><path class="outline" fill="#A5ABB6" stroke="none" d="M 25 0.5 L 62.574922035839975 0.5 L 62.574922035839975 -0.5 L 25 -0.5 Z M 132.59445328583996 0.5 L 170.16937532167995 0.5 L 170.16937532167995 3.5 L 177.16937532167995 0 L 170.16937532167995 -3.5 L 170.16937532167995 -0.5 L 132.59445328583996 -0.5 Z"/><text text-anchor="middle" pointer-events="none" font-size="8px" fill="#000000" x="97.58468766083998" y="3" transform="rotate(180 97.58468766083998 0)" font-family="sans-serif">OTEVRENA_DLE</text></g><g class="relationship" transform="translate(-124.34375539000006 0.8904565327955407) rotate(334.54313061505627)"><path class="outline" fill="#A5ABB6" stroke="none" d="M 25 0.5 L 82.96454101967461 0.5 L 82.96454101967461 -0.5 L 25 -0.5 Z M 152.9840722696746 0.5 L 210.94861328934923 0.5 L 210.94861328934923 3.5 L 217.94861328934923 0 L 210.94861328934923 -3.5 L 210.94861328934923 -0.5 L 152.9840722696746 -0.5 Z"/><text text-anchor="middle" pointer-events="none" font-size="8px" fill="#000000" x="117.97430664467461" y="3" font-family="sans-serif">OTEVRENA_DLE</text></g><g class="relationship" transform="translate(-124.34375539000006 0.8904565327955407) rotate(336.61796594260227)"><path class="outline" fill="#A5ABB6" stroke="none" d="M 25 0.5 L 34.71975314147919 0.5 L 34.71975314147919 -0.5 L 25 -0.5 Z M 104.73928439147919 0.5 L 114.45903753295838 0.5 L 114.45903753295838 3.5 L 121.45903753295838 0 L 114.45903753295838 -3.5 L 114.45903753295838 -0.5 L 104.73928439147919 -0.5 Z"/><text text-anchor="middle" pointer-events="none" font-size="8px" fill="#000000" x="69.72951876647919" y="3" font-family="sans-serif">OTEVRENA_DLE</text></g><g class="relationship" transform="translate(-124.34375539000006 0.8904565327955407) rotate(354.43679808303705)"><path class="outline" fill="#A5ABB6" stroke="none" d="M 25 0.5 L 101.01824241203849 0.5 L 101.01824241203849 -0.5 L 25 -0.5 Z M 171.0377736620385 0.5 L 247.05601607407698 0.5 L 247.05601607407698 3.5 L 254.05601607407698 0 L 247.05601607407698 -3.5 L 247.05601607407698 -0.5 L 171.0377736620385 -0.5 Z"/><text text-anchor="middle" pointer-events="none" font-size="8px" fill="#000000" x="136.0280080370385" y="3" font-family="sans-serif">OTEVRENA_DLE</text></g><g class="relationship" transform="translate(-124.34375539000006 0.8904565327955407) rotate(431.7421745575307)"><path class="outline" fill="#A5ABB6" stroke="none" d="M 25 0.5 L 84.95243994270625 0.5 L 84.95243994270625 -0.5 L 25 -0.5 Z M 102.95243994270625 0.5 L 162.9048798854125 0.5 L 162.9048798854125 3.5 L 169.9048798854125 0 L 162.9048798854125 -3.5 L 162.9048798854125 -0.5 L 102.95243994270625 -0.5 Z"/><text text-anchor="middle" pointer-events="none" font-size="8px" fill="#000000" x="93.95243994270625" y="3" font-family="sans-serif">MA</text></g><g class="relationship" transform="translate(-124.34375539000006 0.8904565327955407) rotate(401.6333335292452)"><path class="outline" fill="#A5ABB6" stroke="none" d="M 25 0.5 L 51.66766418043149 0.5 L 51.66766418043149 -0.5 L 25 -0.5 Z M 120.50750793043149 0.5 L 147.17517211086297 0.5 L 147.17517211086297 3.5 L 154.17517211086297 0 L 147.17517211086297 -3.5 L 147.17517211086297 -0.5 L 120.50750793043149 -0.5 Z"/><text text-anchor="middle" pointer-events="none" font-size="8px" fill="#000000" x="86.08758605543149" y="3" font-family="sans-serif">JE_POKRYVANA</text></g><g class="relationship" transform="translate(-30.882402686768323 32.06836287372176) rotate(500.2080690143874)"><path class="outline" fill="#A5ABB6" stroke="none" d="M 25 0.5 L 26.256907018347825 0.5 L 26.256907018347825 -0.5 L 25 -0.5 Z M 88.71393826834782 0.5 L 89.97084528669565 0.5 L 89.97084528669565 3.5 L 96.97084528669565 0 L 89.97084528669565 -3.5 L 89.97084528669565 -0.5 L 88.71393826834782 -0.5 Z"/><text text-anchor="middle" pointer-events="none" font-size="8px" fill="#000000" x="57.485422643347825" y="3" transform="rotate(180 57.485422643347825 0)" font-family="sans-serif">JE_PRISTUP…</text></g><g class="relationship" transform="translate(-30.882402686768323 32.06836287372176) rotate(253.53829009669818)"><path class="outline" fill="#A5ABB6" stroke="none" d="M 25 0.5 L 36.97475119503103 0.5 L 36.97475119503103 -0.5 L 25 -0.5 Z M 102.54506369503103 0.5 L 114.51981489006207 0.5 L 114.51981489006207 3.5 L 121.51981489006207 0 L 114.51981489006207 -3.5 L 114.51981489006207 -0.5 L 102.54506369503103 -0.5 Z"/><text text-anchor="middle" pointer-events="none" font-size="8px" fill="#000000" x="69.75990744503103" y="3" transform="rotate(180 69.75990744503103 0)" font-family="sans-serif">JE_PRISTUPNA</text></g><g class="relationship" transform="translate(-30.882402686768323 32.06836287372176) rotate(386.92684147379043)"><path class="outline" fill="#A5ABB6" stroke="none" d="M 25 0.5 L 74.69285864470758 0.5 L 74.69285864470758 -0.5 L 25 -0.5 Z M 92.69285864470758 0.5 L 142.38571728941517 0.5 L 142.38571728941517 3.5 L 149.38571728941517 0 L 142.38571728941517 -3.5 L 142.38571728941517 -0.5 L 92.69285864470758 -0.5 Z"/><text text-anchor="middle" pointer-events="none" font-size="8px" fill="#000000" x="83.69285864470758" y="3" font-family="sans-serif">MA</text></g><g class="relationship" transform="translate(-30.882402686768323 32.06836287372176) rotate(417.39317278300814)"><path class="outline" fill="#A5ABB6" stroke="none" d="M 25 0.5 L 59.353535708085545 0.5 L 59.353535708085545 -0.5 L 25 -0.5 Z M 128.19337945808553 0.5 L 162.5469151661711 0.5 L 162.5469151661711 3.5 L 169.5469151661711 0 L 162.5469151661711 -3.5 L 162.5469151661711 -0.5 L 128.19337945808553 -0.5 Z"/><text text-anchor="middle" pointer-events="none" font-size="8px" fill="#000000" x="93.77345758308554" y="3" font-family="sans-serif">JE_POKRYVANA</text></g><g class="relationship" transform="translate(-185.34577608141575 -127.70312853653176) rotate(240.36760479393922)"><path class="outline" fill="#A5ABB6" stroke="none" d="M 25 0.5 L 57.73988219227688 0.5 L 57.73988219227688 -0.5 L 25 -0.5 Z M 136.04847594227687 0.5 L 168.78835813455376 0.5 L 168.78835813455376 3.5 L 175.78835813455376 0 L 168.78835813455376 -3.5 L 168.78835813455376 -0.5 L 136.04847594227687 -0.5 Z"/><text text-anchor="middle" pointer-events="none" font-size="8px" fill="#000000" x="96.89417906727688" y="3" transform="rotate(180 96.89417906727688 0)" font-family="sans-serif">JE_ORGANIZOVAN</text></g><g class="relationship" transform="translate(-185.34577608141575 -127.70312853653176) rotate(267.6412350340209)"><path class="outline" fill="#A5ABB6" stroke="none" d="M 25 0.5 L 27.87180832891788 0.5 L 27.87180832891788 -0.5 L 25 -0.5 Z M 106.18040207891788 0.5 L 109.05221040783576 0.5 L 109.05221040783576 3.5 L 116.05221040783576 0 L 109.05221040783576 -3.5 L 109.05221040783576 -0.5 L 106.18040207891788 -0.5 Z"/><text text-anchor="middle" pointer-events="none" font-size="8px" fill="#000000" x="67.02610520391788" y="3" transform="rotate(180 67.02610520391788 0)" font-family="sans-serif">JE_ORGANIZOVAN</text></g><g class="relationship" transform="translate(-185.34577608141575 -127.70312853653176) rotate(405.9677596942097)"><path class="outline" fill="#A5ABB6" stroke="none" d="M 25 0.5 L 85.7181672105481 0.5 L 85.7181672105481 -0.5 L 25 -0.5 Z M 129.5111359605481 0.5 L 190.2293031710962 0.5 L 190.2293031710962 3.5 L 197.2293031710962 0 L 190.2293031710962 -3.5 L 190.2293031710962 -0.5 L 129.5111359605481 -0.5 Z"/><text text-anchor="middle" pointer-events="none" font-size="8px" fill="#000000" x="107.6146515855481" y="3" font-family="sans-serif">SE_KONA</text></g><g class="relationship" transform="translate(-281.310700744921 -62.99680208378718) rotate(492.50310074161536)"><path class="outline" fill="#A5ABB6" stroke="none" d="M 25 0.5 L 55.25059201250927 0.5 L 55.25059201250927 -0.5 L 25 -0.5 Z M 133.5591857625093 0.5 L 163.80977777501855 0.5 L 163.80977777501855 3.5 L 170.80977777501855 0 L 163.80977777501855 -3.5 L 163.80977777501855 -0.5 L 133.5591857625093 -0.5 Z"/><text text-anchor="middle" pointer-events="none" font-size="8px" fill="#000000" x="94.40488888750927" y="3" transform="rotate(180 94.40488888750927 0)" font-family="sans-serif">JE_ORGANIZOVAN</text></g><g class="relationship" transform="translate(-281.310700744921 -62.99680208378718) rotate(293.67440937443973)"><path class="outline" fill="#A5ABB6" stroke="none" d="M 25 0.5 L 69.6134404717024 0.5 L 69.6134404717024 -0.5 L 25 -0.5 Z M 147.9220342217024 0.5 L 192.5354746934048 0.5 L 192.5354746934048 3.5 L 199.5354746934048 0 L 192.5354746934048 -3.5 L 192.5354746934048 -0.5 L 147.9220342217024 -0.5 Z"/><text text-anchor="middle" pointer-events="none" font-size="8px" fill="#000000" x="108.7677373467024" y="3" font-family="sans-serif">JE_ORGANIZOVAN</text></g><g class="relationship" transform="translate(-281.310700744921 -62.99680208378718) rotate(382.146859212059)"><path class="outline" fill="#A5ABB6" stroke="none" d="M 25 0.5 L 59.33869684802693 0.5 L 59.33869684802693 -0.5 L 25 -0.5 Z M 103.13166559802693 0.5 L 137.47036244605385 0.5 L 137.47036244605385 3.5 L 144.47036244605385 0 L 137.47036244605385 -3.5 L 137.47036244605385 -0.5 L 103.13166559802693 -0.5 Z"/><text text-anchor="middle" pointer-events="none" font-size="8px" fill="#000000" x="81.23518122302693" y="3" font-family="sans-serif">SE_KONA</text></g><g class="relationship" transform="translate(-327.90670141144517 -150.0209118925616) rotate(489.7985175678607)"><path class="outline" fill="#A5ABB6" stroke="none" d="M 25 0.5 L 45.71269218392504 0.5 L 45.71269218392504 -0.5 L 25 -0.5 Z M 124.02128593392504 0.5 L 144.73397811785009 0.5 L 144.73397811785009 3.5 L 151.73397811785009 0 L 144.73397811785009 -3.5 L 144.73397811785009 -0.5 L 124.02128593392504 -0.5 Z"/><text text-anchor="middle" pointer-events="none" font-size="8px" fill="#000000" x="84.86698905892504" y="3" transform="rotate(180 84.86698905892504 0)" font-family="sans-serif">JE_ORGANIZOVAN</text></g><g class="relationship" transform="translate(-327.90670141144517 -150.0209118925616) rotate(285.87427792113283)"><path class="outline" fill="#A5ABB6" stroke="none" d="M 25 0.5 L 36.468396450119585 0.5 L 36.468396450119585 -0.5 L 25 -0.5 Z M 114.77699020011958 0.5 L 126.24538665023917 0.5 L 126.24538665023917 3.5 L 133.24538665023917 0 L 126.24538665023917 -3.5 L 126.24538665023917 -0.5 L 114.77699020011958 -0.5 Z"/><text text-anchor="middle" pointer-events="none" font-size="8px" fill="#000000" x="75.62269332511958" y="3" font-family="sans-serif">JE_ORGANIZOVAN</text></g><g class="relationship" transform="translate(-327.90670141144517 -150.0209118925616) rotate(319.06329929841445)"><path class="outline" fill="#A5ABB6" stroke="none" d="M 25 0.5 L 47.86036887713941 0.5 L 47.86036887713941 -0.5 L 25 -0.5 Z M 126.16896262713941 0.5 L 149.02933150427882 0.5 L 149.02933150427882 3.5 L 156.02933150427882 0 L 149.02933150427882 -3.5 L 149.02933150427882 -0.5 L 126.16896262713941 -0.5 Z"/><text text-anchor="middle" pointer-events="none" font-size="8px" fill="#000000" x="87.01466575213941" y="3" font-family="sans-serif">JE_ORGANIZOVAN</text></g><g class="relationship" transform="translate(-327.90670141144517 -150.0209118925616) rotate(396.5513851052877)"><path class="outline" fill="#A5ABB6" stroke="none" d="M 25 0.5 L 101.30406230194183 0.5 L 101.30406230194183 -0.5 L 25 -0.5 Z M 145.09703105194183 0.5 L 221.40109335388365 0.5 L 221.40109335388365 3.5 L 228.40109335388365 0 L 221.40109335388365 -3.5 L 221.40109335388365 -0.5 L 145.09703105194183 -0.5 Z"/><text text-anchor="middle" pointer-events="none" font-size="8px" fill="#000000" x="123.20054667694183" y="3" font-family="sans-serif">SE_KONA</text></g><g class="relationship" transform="translate(-80.36321749521133 -305.15576032154695) rotate(539.1797806148165)"><path class="outline" fill="#A5ABB6" stroke="none" d="M 25 0.5 L 59.48568379842341 0.5 L 59.48568379842341 -0.5 L 25 -0.5 Z M 137.7942775484234 0.5 L 172.27996134684682 0.5 L 172.27996134684682 3.5 L 179.27996134684682 0 L 172.27996134684682 -3.5 L 172.27996134684682 -0.5 L 137.7942775484234 -0.5 Z"/><text text-anchor="middle" pointer-events="none" font-size="8px" fill="#000000" x="98.63998067342341" y="3" transform="rotate(180 98.63998067342341 0)" font-family="sans-serif">JE_ORGANIZOVAN</text></g><g class="relationship" transform="translate(-80.36321749521133 -305.15576032154695) rotate(384.47558046178773)"><path class="outline" fill="#A5ABB6" stroke="none" d="M 25 0.5 L 85.8511367183405 0.5 L 85.8511367183405 -0.5 L 25 -0.5 Z M 129.6441054683405 0.5 L 190.495242186681 0.5 L 190.495242186681 3.5 L 197.495242186681 0 L 190.495242186681 -3.5 L 190.495242186681 -0.5 L 129.6441054683405 -0.5 Z"/><text text-anchor="middle" pointer-events="none" font-size="8px" fill="#000000" x="107.7476210933405" y="3" font-family="sans-serif">SE_KONA</text></g><g class="relationship" transform="translate(7.996770353340178 -349.08310429932135) rotate(518.0033751267058)"><path class="outline" fill="#A5ABB6" stroke="none" d="M 25 0.5 L 64.73704400160983 0.5 L 64.73704400160983 -0.5 L 25 -0.5 Z M 143.04563775160983 0.5 L 182.78268175321966 0.5 L 182.78268175321966 3.5 L 189.78268175321966 0 L 182.78268175321966 -3.5 L 182.78268175321966 -0.5 L 143.04563775160983 -0.5 Z"/><text text-anchor="middle" pointer-events="none" font-size="8px" fill="#000000" x="103.89134087660983" y="3" transform="rotate(180 103.89134087660983 0)" font-family="sans-serif">JE_ORGANIZOVAN</text></g><g class="relationship" transform="translate(7.996770353340178 -349.08310429932135) rotate(410.016571959196)"><path class="outline" fill="#A5ABB6" stroke="none" d="M 25 0.5 L 63.42035992195076 0.5 L 63.42035992195076 -0.5 L 25 -0.5 Z M 107.21332867195076 0.5 L 145.63368859390152 0.5 L 145.63368859390152 3.5 L 152.63368859390152 0 L 145.63368859390152 -3.5 L 145.63368859390152 -0.5 L 107.21332867195076 -0.5 Z"/><text text-anchor="middle" pointer-events="none" font-size="8px" fill="#000000" x="85.31684429695076" y="3" font-family="sans-serif">SE_KONA</text></g><g class="relationship" transform="translate(-271.82668296013765 35.77982972553152) rotate(522.1772655194172)"><path class="outline" fill="#A5ABB6" stroke="none" d="M 25 0.5 L 31.808835676411803 0.5 L 31.808835676411803 -0.5 L 25 -0.5 Z M 110.1174294264118 0.5 L 116.9262651028236 0.5 L 116.9262651028236 3.5 L 123.9262651028236 0 L 116.9262651028236 -3.5 L 116.9262651028236 -0.5 L 110.1174294264118 -0.5 Z"/><text text-anchor="middle" pointer-events="none" font-size="8px" fill="#000000" x="70.9631325514118" y="3" transform="rotate(180 70.9631325514118 0)" font-family="sans-serif">JE_ORGANIZOVAN</text></g><g class="relationship" transform="translate(-271.82668296013765 35.77982972553152) rotate(346.69047594948233)"><path class="outline" fill="#A5ABB6" stroke="none" d="M 25 0.5 L 50.380296842006786 0.5 L 50.380296842006786 -0.5 L 25 -0.5 Z M 94.17326559200679 0.5 L 119.55356243401357 0.5 L 119.55356243401357 3.5 L 126.55356243401357 0 L 119.55356243401357 -3.5 L 119.55356243401357 -0.5 L 94.17326559200679 -0.5 Z"/><text text-anchor="middle" pointer-events="none" font-size="8px" fill="#000000" x="72.27678121700679" y="3" font-family="sans-serif">SE_KONA</text></g><g class="relationship" transform="translate(-321.27060904011205 120.60920601083892) rotate(228.39040799797442)"><path class="outline" fill="#A5ABB6" stroke="none" d="M 25 0.5 L 47.52073623157986 0.5 L 47.52073623157986 -0.5 L 25 -0.5 Z M 125.82932998157986 0.5 L 148.35006621315972 0.5 L 148.35006621315972 3.5 L 155.35006621315972 0 L 148.35006621315972 -3.5 L 148.35006621315972 -0.5 L 125.82932998157986 -0.5 Z"/><text text-anchor="middle" pointer-events="none" font-size="8px" fill="#000000" x="86.67503310657986" y="3" transform="rotate(180 86.67503310657986 0)" font-family="sans-serif">JE_ORGANIZOVAN</text></g><g class="relationship" transform="translate(-321.27060904011205 120.60920601083892) rotate(328.7031130003842)"><path class="outline" fill="#A5ABB6" stroke="none" d="M 25 0.5 L 89.83454949296363 0.5 L 89.83454949296363 -0.5 L 25 -0.5 Z M 133.62751824296362 0.5 L 198.46206773592726 0.5 L 198.46206773592726 3.5 L 205.46206773592726 0 L 198.46206773592726 -3.5 L 198.46206773592726 -0.5 L 133.62751824296362 -0.5 Z"/><text text-anchor="middle" pointer-events="none" font-size="8px" fill="#000000" x="111.73103386796363" y="3" font-family="sans-serif">SE_KONA</text></g></g><g class="layer nodes"><g class="node" aria-label="graph-node0" transform="translate(122.13814189532334,-212.97478484018563)"><circle class="outline" cx="0" cy="0" r="25" fill="#C990C0" stroke="#b261a5" stroke-width="2px"/><text class="caption" text-anchor="middle" pointer-events="none" x="0" y="5" font-size="10px" fill="#FFFFFF" font-family="sans-serif"> Velká hala</text></g><g class="node" aria-label="graph-node1" transform="translate(-124.34375539000006,0.8904565327955407)"><circle class="outline" cx="0" cy="0" r="25" fill="#C990C0" stroke="#b261a5" stroke-width="2px"/><text class="caption" text-anchor="middle" pointer-events="none" x="0" y="5" font-size="10px" fill="#FFFFFF" font-family="sans-serif"> Malá hala</text></g><g class="node" aria-label="graph-node2" transform="translate(-30.882402686768323,32.06836287372176)"><circle class="outline" cx="0" cy="0" r="25" fill="#C990C0" stroke="#b261a5" stroke-width="2px"/><text class="caption" text-anchor="middle" pointer-events="none" x="0" y="5" font-size="10px" fill="#FFFFFF" font-family="sans-serif"> Hřiště</text></g><g class="node" aria-label="graph-node3" transform="translate(108.98085198381544,-366.137116717185)"><circle class="outline" cx="0" cy="0" r="25" fill="#F79767" stroke="#f36924" stroke-width="2px"/><text class="caption" text-anchor="middle" pointer-events="none" x="0" y="0" font-size="10px" fill="#FFFFFF" font-family="sans-serif"> Úplna</text><text class="caption" text-anchor="middle" pointer-events="none" x="0" y="10" font-size="10px" fill="#FFFFFF" font-family="sans-serif"> střecha</text></g><g class="node" aria-label="graph-node4" transform="translate(9.573865506100729,119.9274806659853)"><circle class="outline" cx="0" cy="0" r="25" fill="#F79767" stroke="#f36924" stroke-width="2px"/><text class="caption" text-anchor="middle" pointer-events="none" x="0" y="0" font-size="10px" fill="#FFFFFF" font-family="sans-serif"> Poloviční</text><text class="caption" text-anchor="middle" pointer-events="none" x="0" y="10" font-size="10px" fill="#FFFFFF" font-family="sans-serif"> střecha</text></g><g class="node" aria-label="graph-node5" transform="translate(73.9533202589095,195.95238709551847)"><circle class="outline" cx="0" cy="0" r="25" fill="#F79767" stroke="#f36924" stroke-width="2px"/><text class="caption" text-anchor="middle" pointer-events="none" x="0" y="0" font-size="10px" fill="#FFFFFF" font-family="sans-serif"> Magická</text><text class="caption" text-anchor="middle" pointer-events="none" x="0" y="10" font-size="10px" fill="#FFFFFF" font-family="sans-serif"> střecha</text></g><g class="node" aria-label="graph-node6" transform="translate(-63.281320827193746,185.98311248761746)"><circle class="outline" cx="0" cy="0" r="25" fill="#57C7E3" stroke="#23b3d7" stroke-width="2px"/><text class="caption" text-anchor="middle" pointer-events="none" x="0" y="5" font-size="10px" fill="#2A2C34" font-family="sans-serif"> Parket</text></g><g class="node" aria-label="graph-node7" transform="translate(280.15786639537026,-175.12489500262328)"><circle class="outline" cx="0" cy="0" r="25" fill="#57C7E3" stroke="#23b3d7" stroke-width="2px"/><text class="caption" text-anchor="middle" pointer-events="none" x="0" y="0" font-size="10px" fill="#2A2C34" font-family="sans-serif"> Uměla</text><text class="caption" text-anchor="middle" pointer-events="none" x="0" y="10" font-size="10px" fill="#2A2C34" font-family="sans-serif"> trava</text></g><g class="node" aria-label="graph-node8" transform="translate(124.59737054425432,111.03936078164749)"><circle class="outline" cx="0" cy="0" r="25" fill="#57C7E3" stroke="#23b3d7" stroke-width="2px"/><text class="caption" text-anchor="middle" pointer-events="none" x="0" y="5" font-size="10px" fill="#2A2C34" font-family="sans-serif"> Trava</text></g><g class="node" aria-label="graph-node9" transform="translate(153.39786976585043,-26.16226538058229)"><circle class="outline" cx="0" cy="0" r="25" fill="#F16667" stroke="#eb2728" stroke-width="2px"/><text class="caption" text-anchor="middle" pointer-events="none" x="0" y="5" font-size="10px" fill="#FFFFFF" font-family="sans-serif"> "00:00:00"</text></g><g class="node" aria-label="graph-node10" transform="translate(10.087935951956133,-57.233291092607374)"><circle class="outline" cx="0" cy="0" r="25" fill="#F16667" stroke="#eb2728" stroke-width="2px"/><text class="caption" text-anchor="middle" pointer-events="none" x="0" y="5" font-size="10px" fill="#FFFFFF" font-family="sans-serif"> "07:00:00"</text></g><g class="node" aria-label="graph-node11" transform="translate(95.01675958645592,-103.53651875846617)"><circle class="outline" cx="0" cy="0" r="25" fill="#F16667" stroke="#eb2728" stroke-width="2px"/><text class="caption" text-anchor="middle" pointer-events="none" x="0" y="5" font-size="10px" fill="#FFFFFF" font-family="sans-serif"> "07:00:00"</text></g><g class="node" aria-label="graph-node12" transform="translate(271.8768912294975,-273.9112091561908)"><circle class="outline" cx="0" cy="0" r="25" fill="#F16667" stroke="#eb2728" stroke-width="2px"/><text class="caption" text-anchor="middle" pointer-events="none" x="0" y="5" font-size="10px" fill="#FFFFFF" font-family="sans-serif"> "07:00:00"</text></g><g class="node" aria-label="graph-node13" transform="translate(-161.48392895433625,199.6190750696567)"><circle class="outline" cx="0" cy="0" r="25" fill="#F16667" stroke="#eb2728" stroke-width="2px"/><text class="caption" text-anchor="middle" pointer-events="none" x="0" y="5" font-size="10px" fill="#FFFFFF" font-family="sans-serif"> "09:00:00"</text></g><g class="node" aria-label="graph-node14" transform="translate(67.99875737448333,20.066612478490438)"><circle class="outline" cx="0" cy="0" r="25" fill="#F16667" stroke="#eb2728" stroke-width="2px"/><text class="caption" text-anchor="middle" pointer-events="none" x="0" y="5" font-size="10px" fill="#FFFFFF" font-family="sans-serif"> "07:00:00"</text></g><g class="node" aria-label="graph-node15" transform="translate(206.73981247138929,-348.9886534044369)"><circle class="outline" cx="0" cy="0" r="25" fill="#F16667" stroke="#eb2728" stroke-width="2px"/><text class="caption" text-anchor="middle" pointer-events="none" x="0" y="5" font-size="10px" fill="#FFFFFF" font-family="sans-serif"> "07:00:00"</text></g><g class="node" aria-label="graph-node16" transform="translate(-222.21667011696908,122.35456178144206)"><circle class="outline" cx="0" cy="0" r="25" fill="#F16667" stroke="#eb2728" stroke-width="2px"/><text class="caption" text-anchor="middle" pointer-events="none" x="0" y="5" font-size="10px" fill="#FFFFFF" font-family="sans-serif"> "09:00:00"</text></g><g class="node" aria-label="graph-node17" transform="translate(-72.7075295384296,-206.53941475173815)"><circle class="outline" cx="0" cy="0" r="25" fill="#F16667" stroke="#eb2728" stroke-width="2px"/><text class="caption" text-anchor="middle" pointer-events="none" x="0" y="5" font-size="10px" fill="#FFFFFF" font-family="sans-serif"> "00:00:00"</text></g><g class="node" aria-label="graph-node18" transform="translate(-185.34577608141575,-127.70312853653176)"><circle class="outline" cx="0" cy="0" r="25" fill="#D9C8AE" stroke="#c0a378" stroke-width="2px"/><text class="caption" text-anchor="middle" pointer-events="none" x="0" y="5" font-size="10px" fill="#2A2C34" font-family="sans-serif"> "2077-0…</text></g><g class="node" aria-label="graph-node19" transform="translate(-281.310700744921,-62.99680208378718)"><circle class="outline" cx="0" cy="0" r="25" fill="#D9C8AE" stroke="#c0a378" stroke-width="2px"/><text class="caption" text-anchor="middle" pointer-events="none" x="0" y="5" font-size="10px" fill="#2A2C34" font-family="sans-serif"> "2022-0…</text></g><g class="node" aria-label="graph-node20" transform="translate(-327.90670141144517,-150.0209118925616)"><circle class="outline" cx="0" cy="0" r="25" fill="#D9C8AE" stroke="#c0a378" stroke-width="2px"/><text class="caption" text-anchor="middle" pointer-events="none" x="0" y="5" font-size="10px" fill="#2A2C34" font-family="sans-serif"> "2022-0…</text></g><g class="node" aria-label="graph-node21" transform="translate(-80.36321749521133,-305.15576032154695)"><circle class="outline" cx="0" cy="0" r="25" fill="#D9C8AE" stroke="#c0a378" stroke-width="2px"/><text class="caption" text-anchor="middle" pointer-events="none" x="0" y="5" font-size="10px" fill="#2A2C34" font-family="sans-serif"> "2077-0…</text></g><g class="node" aria-label="graph-node22" transform="translate(7.996770353340178,-349.08310429932135)"><circle class="outline" cx="0" cy="0" r="25" fill="#D9C8AE" stroke="#c0a378" stroke-width="2px"/><text class="caption" text-anchor="middle" pointer-events="none" x="0" y="5" font-size="10px" fill="#2A2C34" font-family="sans-serif"> "2022-1…</text></g><g class="node" aria-label="graph-node23" transform="translate(-271.82668296013765,35.77982972553152)"><circle class="outline" cx="0" cy="0" r="25" fill="#D9C8AE" stroke="#c0a378" stroke-width="2px"/><text class="caption" text-anchor="middle" pointer-events="none" x="0" y="5" font-size="10px" fill="#2A2C34" font-family="sans-serif"> "2022-1…</text></g><g class="node" aria-label="graph-node24" transform="translate(-321.27060904011205,120.60920601083892)"><circle class="outline" cx="0" cy="0" r="25" fill="#D9C8AE" stroke="#c0a378" stroke-width="2px"/><text class="caption" text-anchor="middle" pointer-events="none" x="0" y="5" font-size="10px" fill="#2A2C34" font-family="sans-serif"> "2017-1…</text></g><g class="node" aria-label="graph-node25" transform="translate(-191.151003668038,-268.6358266360285)"><circle class="outline" cx="0" cy="0" r="25" fill="#8DCC93" stroke="#5db665" stroke-width="2px"/><text class="caption" text-anchor="middle" pointer-events="none" x="0" y="5" font-size="10px" fill="#2A2C34" font-family="sans-serif"> Kurinnaya</text></g><g class="node" aria-label="graph-node26" transform="translate(-284.62224720729114,-302.23148452249484)"><circle class="outline" cx="0" cy="0" r="25" fill="#8DCC93" stroke="#5db665" stroke-width="2px"/><text class="caption" text-anchor="middle" pointer-events="none" x="0" y="5" font-size="10px" fill="#2A2C34" font-family="sans-serif"> Gunnhildr</text></g><g class="node" aria-label="graph-node27" transform="translate(-413.6056817983384,81.36215004727421)"><circle class="outline" cx="0" cy="0" r="25" fill="#8DCC93" stroke="#5db665" stroke-width="2px"/><text class="caption" text-anchor="middle" pointer-events="none" x="0" y="5" font-size="10px" fill="#2A2C34" font-family="sans-serif"> Dodoco</text></g><g class="node" aria-label="graph-node28" transform="translate(-441.0323218690865,-14.236181464452002)"><circle class="outline" cx="0" cy="0" r="25" fill="#8DCC93" stroke="#5db665" stroke-width="2px"/><text class="caption" text-anchor="middle" pointer-events="none" x="0" y="5" font-size="10px" fill="#2A2C34" font-family="sans-serif"> Lenivý</text></g><g class="node" aria-label="graph-node29" transform="translate(-72.40238392869902,-108.44550588337911)"><circle class="outline" cx="0" cy="0" r="25" fill="#ECB5C9" stroke="#da7298" stroke-width="2px"/><text class="caption" text-anchor="middle" pointer-events="none" x="0" y="5" font-size="10px" fill="#2A2C34" font-family="sans-serif"> Strnad</text></g><g class="node" aria-label="graph-node30" transform="translate(-124.6015878807818,110.12988621602692)"><circle class="outline" cx="0" cy="0" r="25" fill="#ECB5C9" stroke="#da7298" stroke-width="2px"/><text class="caption" text-anchor="middle" pointer-events="none" x="0" y="5" font-size="10px" fill="#2A2C34" font-family="sans-serif"> Hroník</text></g><g class="node" aria-label="graph-node31" transform="translate(11.810247505706753,-155.5997227198055)"><circle class="outline" cx="0" cy="0" r="25" fill="#ECB5C9" stroke="#da7298" stroke-width="2px"/><text class="caption" text-anchor="middle" pointer-events="none" x="0" y="5" font-size="10px" fill="#2A2C34" font-family="sans-serif"> Arzuma…</text></g></g></svg>